<svg width="96" height="17" viewBox="0 0 96 17" fill="none" xmlns="http://www.w3.org/2000/svg">
<path d="M14.304 6.72443H10.7528C10.7055 6.35985 10.6084 6.03078 10.4616 5.73722C10.3149 5.44366 10.1207 5.19271 9.87926 4.98438C9.63778 4.77604 9.35133 4.61742 9.01989 4.50852C8.69318 4.39489 8.33097 4.33807 7.93324 4.33807C7.22775 4.33807 6.61932 4.51089 6.10795 4.85653C5.60133 5.20218 5.2107 5.7017 4.93608 6.35511C4.66619 7.00852 4.53125 7.79924 4.53125 8.72727C4.53125 9.69318 4.66856 10.5028 4.94318 11.1562C5.22254 11.8049 5.61316 12.295 6.11506 12.6264C6.62169 12.9531 7.22064 13.1165 7.91193 13.1165C8.30019 13.1165 8.65294 13.0668 8.97017 12.9673C9.29214 12.8679 9.57386 12.7235 9.81534 12.5341C10.0616 12.34 10.2628 12.1056 10.419 11.831C10.58 11.5516 10.6913 11.2367 10.7528 10.8864L14.304 10.9077C14.2424 11.5516 14.0554 12.1861 13.7429 12.8111C13.4351 13.4361 13.0114 14.0066 12.4716 14.5227C11.9318 15.0341 11.2737 15.4413 10.4972 15.7443C9.72538 16.0473 8.83996 16.1989 7.84091 16.1989C6.52462 16.1989 5.34564 15.91 4.30398 15.3324C3.26705 14.75 2.44792 13.9025 1.84659 12.7898C1.24527 11.6771 0.944602 10.3229 0.944602 8.72727C0.944602 7.12689 1.25 5.77036 1.8608 4.65767C2.47159 3.54498 3.29782 2.69981 4.33949 2.12216C5.38116 1.54451 6.5483 1.25568 7.84091 1.25568C8.72159 1.25568 9.53598 1.37879 10.2841 1.625C11.0322 1.86648 11.6903 2.22159 12.2585 2.69034C12.8267 3.15436 13.2884 3.72491 13.6435 4.40199C13.9986 5.07907 14.2188 5.85322 14.304 6.72443ZM19.391 16.1847C18.695 16.1847 18.0771 16.0687 17.5373 15.8366C17.0022 15.5999 16.5785 15.2448 16.266 14.7713C15.9582 14.2931 15.8043 13.6941 15.8043 12.9744C15.8043 12.3684 15.9109 11.857 16.1239 11.4403C16.337 11.0237 16.6306 10.6851 17.0046 10.4247C17.3787 10.1643 17.8095 9.9678 18.2972 9.83523C18.7849 9.69792 19.3058 9.60559 19.8597 9.55824C20.48 9.50142 20.9795 9.44223 21.3583 9.38068C21.7371 9.31439 22.0117 9.22206 22.1822 9.10369C22.3574 8.98059 22.445 8.80776 22.445 8.58523V8.54972C22.445 8.18513 22.3195 7.90341 22.0685 7.70455C21.8176 7.50568 21.479 7.40625 21.0529 7.40625C20.5936 7.40625 20.2243 7.50568 19.945 7.70455C19.6656 7.90341 19.488 8.17803 19.4123 8.52841L16.2092 8.41477C16.3039 7.75189 16.5477 7.16004 16.9407 6.6392C17.3384 6.11364 17.8829 5.7017 18.5742 5.40341C19.2702 5.10038 20.1059 4.94886 21.0813 4.94886C21.7773 4.94886 22.4189 5.03172 23.006 5.19744C23.5932 5.35843 24.1045 5.59517 24.5401 5.90767C24.9757 6.21544 25.3119 6.59422 25.5487 7.04403C25.7901 7.49384 25.9109 8.00758 25.9109 8.58523V16H22.6438V14.4801H22.5586C22.3645 14.8494 22.1159 15.1619 21.8129 15.4176C21.5146 15.6733 21.1618 15.8651 20.7546 15.9929C20.3522 16.1207 19.8976 16.1847 19.391 16.1847ZM20.4634 13.9119C20.8375 13.9119 21.1737 13.8362 21.4719 13.6847C21.775 13.5331 22.0165 13.3248 22.1964 13.0597C22.3763 12.7898 22.4663 12.4773 22.4663 12.1222V11.0852C22.3668 11.1373 22.2461 11.1847 22.104 11.2273C21.9667 11.2699 21.8152 11.3101 21.6495 11.348C21.4838 11.3859 21.3133 11.419 21.1381 11.4474C20.9629 11.4759 20.7949 11.5019 20.6339 11.5256C20.3072 11.5777 20.0278 11.6581 19.7958 11.767C19.5685 11.8759 19.3933 12.018 19.2702 12.1932C19.1519 12.3636 19.0927 12.5672 19.0927 12.804C19.0927 13.1638 19.2205 13.4384 19.4762 13.6278C19.7366 13.8172 20.0657 13.9119 20.4634 13.9119ZM34.2347 5.09091V7.64773H27.2177V5.09091H34.2347ZM28.6808 16V4.53693C28.6808 3.69413 28.8394 2.99574 29.1566 2.44176C29.4738 1.88305 29.9142 1.46638 30.4776 1.19176C31.0411 0.912405 31.6921 0.772726 32.4308 0.772726C32.9137 0.772726 33.3683 0.810605 33.7944 0.886364C34.2253 0.957386 34.5449 1.02131 34.7532 1.07812L34.1992 3.62074C34.0714 3.57812 33.9151 3.54261 33.7305 3.5142C33.5505 3.48579 33.3801 3.47159 33.2191 3.47159C32.8119 3.47159 32.5326 3.56155 32.381 3.74148C32.2295 3.9214 32.1538 4.16761 32.1538 4.48011V16H28.6808ZM40.6534 16.206C39.5123 16.206 38.5275 15.9811 37.6989 15.5312C36.875 15.0767 36.2405 14.4304 35.7955 13.5923C35.3551 12.7495 35.1349 11.7481 35.1349 10.5881C35.1349 9.46117 35.3575 8.47633 35.8026 7.63352C36.2476 6.78598 36.875 6.12784 37.6847 5.65909C38.4943 5.18561 39.4484 4.94886 40.5469 4.94886C41.3234 4.94886 42.0336 5.0696 42.6776 5.31108C43.3215 5.55256 43.8778 5.91004 44.3466 6.38352C44.8153 6.85701 45.1799 7.44176 45.4403 8.13778C45.7008 8.82907 45.831 9.62216 45.831 10.517V11.3835H36.3494V9.36648H42.5994C42.5947 8.99716 42.5071 8.66809 42.3366 8.37926C42.1662 8.09044 41.9318 7.86553 41.6335 7.70455C41.34 7.53883 41.0014 7.45597 40.6179 7.45597C40.2296 7.45597 39.8816 7.54356 39.5739 7.71875C39.2661 7.8892 39.0223 8.12358 38.8423 8.42188C38.6624 8.71544 38.5677 9.04924 38.5582 9.4233V11.4759C38.5582 11.9209 38.6458 12.3116 38.821 12.6477C38.9962 12.9792 39.2448 13.2372 39.5668 13.4219C39.8887 13.6065 40.2723 13.6989 40.7173 13.6989C41.0251 13.6989 41.3045 13.6562 41.5554 13.571C41.8063 13.4858 42.0218 13.3603 42.2017 13.1946C42.3816 13.0289 42.5166 12.8253 42.6065 12.5838L45.7955 12.6761C45.6629 13.3911 45.3717 14.0137 44.9219 14.544C44.4768 15.0696 43.892 15.4792 43.1676 15.7727C42.4432 16.0616 41.6051 16.206 40.6534 16.206ZM57.2781 16H51.9016V1.45455H57.271C58.753 1.45455 60.029 1.74574 61.0991 2.32812C62.1739 2.90578 63.0025 3.73911 63.5849 4.82812C64.1673 5.91241 64.4585 7.20975 64.4585 8.72017C64.4585 10.2353 64.1673 11.5374 63.5849 12.6264C63.0072 13.7154 62.181 14.5511 61.1062 15.1335C60.0314 15.7112 58.7553 16 57.2781 16ZM55.4173 13.0028H57.1431C57.9575 13.0028 58.6464 12.8655 59.2099 12.5909C59.7781 12.3116 60.2066 11.8594 60.4954 11.2344C60.7889 10.6046 60.9357 9.76657 60.9357 8.72017C60.9357 7.67377 60.7889 6.84044 60.4954 6.22017C60.2018 5.59517 59.7686 5.14536 59.1957 4.87074C58.6275 4.59138 57.9267 4.4517 57.0934 4.4517H55.4173V13.0028ZM69.5863 16.1847C68.8903 16.1847 68.2724 16.0687 67.7326 15.8366C67.1976 15.5999 66.7738 15.2448 66.4613 14.7713C66.1535 14.2931 65.9996 13.6941 65.9996 12.9744C65.9996 12.3684 66.1062 11.857 66.3192 11.4403C66.5323 11.0237 66.8259 10.6851 67.1999 10.4247C67.574 10.1643 68.0049 9.9678 68.4925 9.83523C68.9802 9.69792 69.5011 9.60559 70.055 9.55824C70.6753 9.50142 71.1748 9.44223 71.5536 9.38068C71.9324 9.31439 72.207 9.22206 72.3775 9.10369C72.5527 8.98059 72.6403 8.80776 72.6403 8.58523V8.54972C72.6403 8.18513 72.5148 7.90341 72.2638 7.70455C72.0129 7.50568 71.6744 7.40625 71.2482 7.40625C70.7889 7.40625 70.4196 7.50568 70.1403 7.70455C69.8609 7.90341 69.6834 8.17803 69.6076 8.52841L66.4045 8.41477C66.4992 7.75189 66.743 7.16004 67.136 6.6392C67.5337 6.11364 68.0782 5.7017 68.7695 5.40341C69.4656 5.10038 70.3013 4.94886 71.2766 4.94886C71.9727 4.94886 72.6142 5.03172 73.2013 5.19744C73.7885 5.35843 74.2998 5.59517 74.7354 5.90767C75.171 6.21544 75.5072 6.59422 75.744 7.04403C75.9854 7.49384 76.1062 8.00758 76.1062 8.58523V16H72.8391V14.4801H72.7539C72.5598 14.8494 72.3112 15.1619 72.0082 15.4176C71.7099 15.6733 71.3571 15.8651 70.9499 15.9929C70.5475 16.1207 70.0929 16.1847 69.5863 16.1847ZM70.6587 13.9119C71.0328 13.9119 71.369 13.8362 71.6673 13.6847C71.9703 13.5331 72.2118 13.3248 72.3917 13.0597C72.5716 12.7898 72.6616 12.4773 72.6616 12.1222V11.0852C72.5621 11.1373 72.4414 11.1847 72.2994 11.2273C72.1621 11.2699 72.0105 11.3101 71.8448 11.348C71.6791 11.3859 71.5086 11.419 71.3335 11.4474C71.1583 11.4759 70.9902 11.5019 70.8292 11.5256C70.5025 11.5777 70.2231 11.6581 69.9911 11.767C69.7638 11.8759 69.5887 12.018 69.4656 12.1932C69.3472 12.3636 69.288 12.5672 69.288 12.804C69.288 13.1638 69.4158 13.4384 69.6715 13.6278C69.9319 13.8172 70.261 13.9119 70.6587 13.9119ZM84.3874 5.09091V7.64773H77.5053V5.09091H84.3874ZM78.9471 2.47727H82.4201V12.5696C82.4201 12.7827 82.4532 12.9555 82.5195 13.0881C82.5906 13.2159 82.6924 13.3082 82.8249 13.3651C82.9575 13.4171 83.1161 13.4432 83.3008 13.4432C83.4334 13.4432 83.573 13.4313 83.7198 13.4077C83.8713 13.3793 83.985 13.3556 84.0607 13.3366L84.5863 15.8438C84.4206 15.8911 84.1862 15.9503 83.8832 16.0213C83.5849 16.0923 83.2274 16.1373 82.8107 16.1562C81.9963 16.1941 81.2979 16.0994 80.7156 15.8722C80.1379 15.6402 79.6952 15.2803 79.3874 14.7926C79.0844 14.3049 78.9376 13.6918 78.9471 12.9531V2.47727ZM89.2347 16.1847C88.5387 16.1847 87.9208 16.0687 87.381 15.8366C86.846 15.5999 86.4222 15.2448 86.1097 14.7713C85.802 14.2931 85.6481 13.6941 85.6481 12.9744C85.6481 12.3684 85.7546 11.857 85.9677 11.4403C86.1808 11.0237 86.4743 10.6851 86.8484 10.4247C87.2224 10.1643 87.6533 9.9678 88.141 9.83523C88.6287 9.69792 89.1495 9.60559 89.7035 9.55824C90.3237 9.50142 90.8233 9.44223 91.2021 9.38068C91.5808 9.31439 91.8555 9.22206 92.0259 9.10369C92.2011 8.98059 92.2887 8.80776 92.2887 8.58523V8.54972C92.2887 8.18513 92.1632 7.90341 91.9123 7.70455C91.6613 7.50568 91.3228 7.40625 90.8967 7.40625C90.4374 7.40625 90.0681 7.50568 89.7887 7.70455C89.5094 7.90341 89.3318 8.17803 89.256 8.52841L86.0529 8.41477C86.1476 7.75189 86.3915 7.16004 86.7844 6.6392C87.1822 6.11364 87.7267 5.7017 88.418 5.40341C89.114 5.10038 89.9497 4.94886 90.9251 4.94886C91.6211 4.94886 92.2627 5.03172 92.8498 5.19744C93.4369 5.35843 93.9483 5.59517 94.3839 5.90767C94.8195 6.21544 95.1557 6.59422 95.3924 7.04403C95.6339 7.49384 95.7546 8.00758 95.7546 8.58523V16H92.4876V14.4801H92.4023C92.2082 14.8494 91.9596 15.1619 91.6566 15.4176C91.3583 15.6733 91.0056 15.8651 90.5984 15.9929C90.1959 16.1207 89.7414 16.1847 89.2347 16.1847ZM90.3072 13.9119C90.6812 13.9119 91.0174 13.8362 91.3157 13.6847C91.6187 13.5331 91.8602 13.3248 92.0401 13.0597C92.2201 12.7898 92.31 12.4773 92.31 12.1222V11.0852C92.2106 11.1373 92.0898 11.1847 91.9478 11.2273C91.8105 11.2699 91.659 11.3101 91.4933 11.348C91.3275 11.3859 91.1571 11.419 90.9819 11.4474C90.8067 11.4759 90.6386 11.5019 90.4776 11.5256C90.1509 11.5777 89.8716 11.6581 89.6396 11.767C89.4123 11.8759 89.2371 12.018 89.114 12.1932C88.9956 12.3636 88.9364 12.5672 88.9364 12.804C88.9364 13.1638 89.0643 13.4384 89.32 13.6278C89.5804 13.8172 89.9094 13.9119 90.3072 13.9119Z" fill="#0061F7"/>
</svg>
