<?xml version="1.0" encoding="UTF-8"?>
<svg xmlns="http://www.w3.org/2000/svg" xmlns:xlink="http://www.w3.org/1999/xlink" width="96px" height="17px" viewBox="0 0 50 9" version="1.1">
<g id="surface1">
<path style=" stroke:none;fill-rule:nonzero;fill:rgb(0%,38.039216%,96.862745%);fill-opacity:1;" d="M 7.449219 3.558594 L 5.601562 3.558594 C 5.574219 3.367188 5.523438 3.191406 5.449219 3.039062 C 5.371094 2.882812 5.269531 2.75 5.144531 2.640625 C 5.019531 2.527344 4.871094 2.445312 4.699219 2.386719 C 4.527344 2.328125 4.339844 2.296875 4.132812 2.296875 C 3.765625 2.296875 3.449219 2.386719 3.179688 2.570312 C 2.917969 2.753906 2.714844 3.019531 2.570312 3.363281 C 2.429688 3.710938 2.359375 4.128906 2.359375 4.621094 C 2.359375 5.132812 2.429688 5.558594 2.574219 5.90625 C 2.71875 6.25 2.921875 6.507812 3.183594 6.683594 C 3.449219 6.859375 3.761719 6.945312 4.121094 6.945312 C 4.324219 6.945312 4.507812 6.917969 4.671875 6.863281 C 4.839844 6.8125 4.988281 6.734375 5.113281 6.636719 C 5.242188 6.53125 5.34375 6.410156 5.425781 6.261719 C 5.511719 6.117188 5.570312 5.949219 5.601562 5.761719 L 7.449219 5.773438 C 7.417969 6.117188 7.320312 6.453125 7.15625 6.78125 C 6.996094 7.113281 6.777344 7.414062 6.496094 7.6875 C 6.214844 7.960938 5.871094 8.175781 5.46875 8.335938 C 5.066406 8.496094 4.605469 8.574219 4.082031 8.574219 C 3.398438 8.574219 2.785156 8.421875 2.242188 8.117188 C 1.703125 7.808594 1.273438 7.359375 0.960938 6.769531 C 0.648438 6.183594 0.492188 5.464844 0.492188 4.621094 C 0.492188 3.773438 0.652344 3.054688 0.96875 2.464844 C 1.289062 1.875 1.71875 1.429688 2.261719 1.125 C 2.800781 0.816406 3.410156 0.664062 4.082031 0.664062 C 4.542969 0.664062 4.964844 0.730469 5.355469 0.859375 C 5.746094 0.988281 6.089844 1.175781 6.382812 1.425781 C 6.679688 1.671875 6.921875 1.972656 7.105469 2.332031 C 7.289062 2.6875 7.40625 3.097656 7.449219 3.558594 Z M 10.097656 8.570312 C 9.738281 8.570312 9.414062 8.507812 9.132812 8.382812 C 8.855469 8.257812 8.632812 8.070312 8.472656 7.820312 C 8.3125 7.566406 8.230469 7.25 8.230469 6.867188 C 8.230469 6.546875 8.285156 6.277344 8.398438 6.054688 C 8.507812 5.835938 8.660156 5.65625 8.855469 5.519531 C 9.050781 5.382812 9.277344 5.277344 9.53125 5.207031 C 9.785156 5.132812 10.054688 5.085938 10.34375 5.058594 C 10.667969 5.03125 10.925781 5 11.125 4.964844 C 11.320312 4.929688 11.464844 4.882812 11.554688 4.820312 C 11.644531 4.753906 11.691406 4.664062 11.691406 4.546875 L 11.691406 4.527344 C 11.691406 4.332031 11.625 4.183594 11.492188 4.078125 C 11.363281 3.972656 11.1875 3.921875 10.964844 3.921875 C 10.726562 3.921875 10.535156 3.972656 10.386719 4.078125 C 10.242188 4.183594 10.148438 4.328125 10.109375 4.515625 L 8.441406 4.453125 C 8.492188 4.105469 8.617188 3.789062 8.824219 3.515625 C 9.03125 3.238281 9.3125 3.019531 9.675781 2.859375 C 10.035156 2.699219 10.472656 2.621094 10.980469 2.621094 C 11.34375 2.621094 11.675781 2.664062 11.980469 2.75 C 12.289062 2.835938 12.554688 2.960938 12.78125 3.128906 C 13.007812 3.289062 13.183594 3.492188 13.304688 3.730469 C 13.433594 3.96875 13.496094 4.238281 13.496094 4.546875 L 13.496094 8.46875 L 11.792969 8.46875 L 11.792969 7.664062 L 11.75 7.664062 C 11.648438 7.863281 11.519531 8.027344 11.359375 8.164062 C 11.207031 8.296875 11.023438 8.398438 10.808594 8.46875 C 10.601562 8.535156 10.363281 8.570312 10.097656 8.570312 Z M 10.65625 7.363281 C 10.851562 7.363281 11.027344 7.324219 11.183594 7.246094 C 11.339844 7.164062 11.46875 7.054688 11.5625 6.914062 C 11.65625 6.769531 11.703125 6.605469 11.703125 6.417969 L 11.703125 5.867188 C 11.648438 5.894531 11.585938 5.921875 11.511719 5.945312 C 11.441406 5.964844 11.363281 5.988281 11.277344 6.007812 C 11.191406 6.027344 11.101562 6.046875 11.007812 6.058594 C 10.917969 6.074219 10.832031 6.089844 10.746094 6.101562 C 10.578125 6.128906 10.429688 6.171875 10.308594 6.230469 C 10.191406 6.289062 10.101562 6.363281 10.035156 6.457031 C 9.976562 6.546875 9.945312 6.652344 9.945312 6.777344 C 9.945312 6.96875 10.011719 7.113281 10.144531 7.214844 C 10.28125 7.316406 10.449219 7.363281 10.65625 7.363281 Z M 17.832031 2.695312 L 17.832031 4.046875 L 14.175781 4.046875 L 14.175781 2.695312 Z M 14.9375 8.46875 L 14.9375 2.402344 C 14.9375 1.957031 15.019531 1.585938 15.1875 1.292969 C 15.351562 0.996094 15.582031 0.777344 15.875 0.632812 C 16.167969 0.484375 16.507812 0.410156 16.890625 0.410156 C 17.140625 0.410156 17.378906 0.429688 17.601562 0.46875 C 17.824219 0.507812 17.992188 0.539062 18.101562 0.570312 L 17.8125 1.917969 C 17.746094 1.894531 17.664062 1.875 17.566406 1.859375 C 17.472656 1.84375 17.386719 1.839844 17.300781 1.839844 C 17.089844 1.839844 16.945312 1.886719 16.863281 1.980469 C 16.785156 2.074219 16.746094 2.207031 16.746094 2.371094 L 16.746094 8.46875 Z M 21.171875 8.578125 C 20.578125 8.578125 20.066406 8.460938 19.636719 8.222656 C 19.207031 7.980469 18.875 7.640625 18.644531 7.195312 C 18.414062 6.75 18.300781 6.21875 18.300781 5.605469 C 18.300781 5.007812 18.414062 4.488281 18.648438 4.042969 C 18.878906 3.59375 19.207031 3.246094 19.628906 2.996094 C 20.050781 2.746094 20.546875 2.621094 21.117188 2.621094 C 21.523438 2.621094 21.890625 2.683594 22.226562 2.8125 C 22.5625 2.941406 22.851562 3.128906 23.097656 3.378906 C 23.339844 3.628906 23.53125 3.941406 23.667969 4.308594 C 23.800781 4.675781 23.871094 5.09375 23.871094 5.566406 L 23.871094 6.027344 L 18.933594 6.027344 L 18.933594 4.957031 L 22.1875 4.957031 C 22.183594 4.761719 22.140625 4.589844 22.050781 4.4375 C 21.960938 4.28125 21.839844 4.164062 21.683594 4.078125 C 21.53125 3.992188 21.355469 3.949219 21.15625 3.949219 C 20.953125 3.949219 20.773438 3.992188 20.613281 4.085938 C 20.449219 4.175781 20.324219 4.300781 20.230469 4.457031 C 20.136719 4.613281 20.085938 4.789062 20.082031 4.988281 L 20.082031 6.074219 C 20.082031 6.3125 20.128906 6.519531 20.21875 6.695312 C 20.308594 6.871094 20.441406 7.007812 20.609375 7.105469 C 20.773438 7.203125 20.976562 7.253906 21.207031 7.253906 C 21.367188 7.253906 21.511719 7.230469 21.644531 7.183594 C 21.773438 7.140625 21.886719 7.074219 21.980469 6.984375 C 22.074219 6.898438 22.144531 6.789062 22.191406 6.660156 L 23.851562 6.710938 C 23.78125 7.089844 23.632812 7.417969 23.398438 7.699219 C 23.164062 7.976562 22.859375 8.195312 22.484375 8.351562 C 22.105469 8.503906 21.667969 8.578125 21.171875 8.578125 Z M 29.832031 8.46875 L 27.03125 8.46875 L 27.03125 0.769531 L 29.828125 0.769531 C 30.601562 0.769531 31.265625 0.925781 31.824219 1.234375 C 32.382812 1.539062 32.8125 1.980469 33.117188 2.554688 C 33.421875 3.128906 33.570312 3.816406 33.570312 4.617188 C 33.570312 5.417969 33.421875 6.109375 33.117188 6.683594 C 32.816406 7.261719 32.386719 7.703125 31.824219 8.011719 C 31.265625 8.316406 30.601562 8.46875 29.832031 8.46875 Z M 28.863281 6.882812 L 29.761719 6.882812 C 30.1875 6.882812 30.546875 6.8125 30.839844 6.664062 C 31.132812 6.519531 31.359375 6.277344 31.507812 5.949219 C 31.660156 5.613281 31.738281 5.171875 31.738281 4.617188 C 31.738281 4.0625 31.660156 3.621094 31.507812 3.292969 C 31.355469 2.960938 31.128906 2.722656 30.832031 2.578125 C 30.535156 2.429688 30.171875 2.355469 29.734375 2.355469 L 28.863281 2.355469 Z M 36.242188 8.570312 C 35.878906 8.570312 35.558594 8.507812 35.277344 8.382812 C 35 8.257812 34.777344 8.070312 34.617188 7.820312 C 34.453125 7.566406 34.375 7.25 34.375 6.867188 C 34.375 6.546875 34.429688 6.277344 34.542969 6.054688 C 34.652344 5.835938 34.804688 5.65625 35 5.519531 C 35.195312 5.382812 35.417969 5.277344 35.671875 5.207031 C 35.925781 5.132812 36.199219 5.085938 36.488281 5.058594 C 36.808594 5.03125 37.070312 5 37.265625 4.964844 C 37.464844 4.929688 37.609375 4.882812 37.695312 4.820312 C 37.789062 4.753906 37.832031 4.664062 37.832031 4.546875 L 37.832031 4.527344 C 37.832031 4.332031 37.769531 4.183594 37.636719 4.078125 C 37.507812 3.972656 37.332031 3.921875 37.109375 3.921875 C 36.871094 3.921875 36.675781 3.972656 36.53125 4.078125 C 36.386719 4.183594 36.292969 4.328125 36.253906 4.515625 L 34.585938 4.453125 C 34.636719 4.105469 34.761719 3.789062 34.964844 3.515625 C 35.171875 3.238281 35.457031 3.019531 35.816406 2.859375 C 36.179688 2.699219 36.617188 2.621094 37.125 2.621094 C 37.484375 2.621094 37.820312 2.664062 38.125 2.75 C 38.429688 2.835938 38.699219 2.960938 38.925781 3.128906 C 39.152344 3.289062 39.328125 3.492188 39.449219 3.730469 C 39.574219 3.96875 39.636719 4.238281 39.636719 4.546875 L 39.636719 8.46875 L 37.9375 8.46875 L 37.9375 7.664062 L 37.894531 7.664062 C 37.792969 7.863281 37.660156 8.027344 37.503906 8.164062 C 37.347656 8.296875 37.164062 8.398438 36.953125 8.46875 C 36.742188 8.535156 36.507812 8.570312 36.242188 8.570312 Z M 36.800781 7.363281 C 36.996094 7.363281 37.171875 7.324219 37.328125 7.246094 C 37.484375 7.164062 37.609375 7.054688 37.703125 6.914062 C 37.796875 6.769531 37.84375 6.605469 37.84375 6.417969 L 37.84375 5.867188 C 37.792969 5.894531 37.730469 5.921875 37.65625 5.945312 C 37.585938 5.964844 37.503906 5.988281 37.417969 6.007812 C 37.332031 6.027344 37.242188 6.046875 37.152344 6.058594 C 37.0625 6.074219 36.972656 6.089844 36.890625 6.101562 C 36.71875 6.128906 36.574219 6.171875 36.453125 6.230469 C 36.335938 6.289062 36.242188 6.363281 36.179688 6.457031 C 36.117188 6.546875 36.085938 6.652344 36.085938 6.777344 C 36.085938 6.96875 36.152344 7.113281 36.289062 7.214844 C 36.421875 7.316406 36.59375 7.363281 36.800781 7.363281 Z M 43.953125 2.695312 L 43.953125 4.046875 L 40.367188 4.046875 L 40.367188 2.695312 Z M 41.117188 1.3125 L 42.925781 1.3125 L 42.925781 6.65625 C 42.925781 6.765625 42.945312 6.859375 42.980469 6.929688 C 43.015625 6.996094 43.070312 7.046875 43.136719 7.074219 C 43.207031 7.101562 43.289062 7.117188 43.386719 7.117188 C 43.453125 7.117188 43.527344 7.109375 43.605469 7.097656 C 43.683594 7.082031 43.742188 7.070312 43.78125 7.0625 L 44.054688 8.386719 C 43.96875 8.414062 43.847656 8.445312 43.6875 8.480469 C 43.535156 8.519531 43.347656 8.542969 43.128906 8.554688 C 42.707031 8.574219 42.34375 8.523438 42.039062 8.402344 C 41.738281 8.28125 41.507812 8.089844 41.347656 7.832031 C 41.191406 7.574219 41.113281 7.25 41.117188 6.859375 Z M 46.476562 8.570312 C 46.113281 8.570312 45.792969 8.507812 45.511719 8.382812 C 45.230469 8.257812 45.011719 8.070312 44.847656 7.820312 C 44.6875 7.566406 44.609375 7.25 44.609375 6.867188 C 44.609375 6.546875 44.664062 6.277344 44.773438 6.054688 C 44.886719 5.835938 45.039062 5.65625 45.234375 5.519531 C 45.429688 5.382812 45.652344 5.277344 45.90625 5.207031 C 46.160156 5.132812 46.433594 5.085938 46.71875 5.058594 C 47.042969 5.03125 47.304688 5 47.5 4.964844 C 47.699219 4.929688 47.839844 4.882812 47.929688 4.820312 C 48.019531 4.753906 48.066406 4.664062 48.066406 4.546875 L 48.066406 4.527344 C 48.066406 4.332031 48 4.183594 47.871094 4.078125 C 47.742188 3.972656 47.5625 3.921875 47.34375 3.921875 C 47.101562 3.921875 46.910156 3.972656 46.765625 4.078125 C 46.621094 4.183594 46.527344 4.328125 46.488281 4.515625 L 44.820312 4.453125 C 44.867188 4.105469 44.996094 3.789062 45.199219 3.515625 C 45.40625 3.238281 45.691406 3.019531 46.050781 2.859375 C 46.414062 2.699219 46.847656 2.621094 47.355469 2.621094 C 47.71875 2.621094 48.054688 2.664062 48.359375 2.75 C 48.664062 2.835938 48.929688 2.960938 49.160156 3.128906 C 49.386719 3.289062 49.558594 3.492188 49.683594 3.730469 C 49.808594 3.96875 49.871094 4.238281 49.871094 4.546875 L 49.871094 8.46875 L 48.171875 8.46875 L 48.171875 7.664062 L 48.125 7.664062 C 48.023438 7.863281 47.894531 8.027344 47.738281 8.164062 C 47.582031 8.296875 47.398438 8.398438 47.1875 8.46875 C 46.976562 8.535156 46.742188 8.570312 46.476562 8.570312 Z M 47.035156 7.363281 C 47.230469 7.363281 47.40625 7.324219 47.558594 7.246094 C 47.71875 7.164062 47.84375 7.054688 47.9375 6.914062 C 48.03125 6.769531 48.078125 6.605469 48.078125 6.417969 L 48.078125 5.867188 C 48.027344 5.894531 47.964844 5.921875 47.890625 5.945312 C 47.816406 5.964844 47.738281 5.988281 47.652344 6.007812 C 47.566406 6.027344 47.476562 6.046875 47.386719 6.058594 C 47.296875 6.074219 47.207031 6.089844 47.125 6.101562 C 46.953125 6.128906 46.808594 6.171875 46.6875 6.230469 C 46.570312 6.289062 46.476562 6.363281 46.414062 6.457031 C 46.351562 6.546875 46.320312 6.652344 46.320312 6.777344 C 46.320312 6.96875 46.386719 7.113281 46.519531 7.214844 C 46.65625 7.316406 46.828125 7.363281 47.035156 7.363281 Z M 47.035156 7.363281 "/>
</g>
</svg>
