<svg width="256" height="256" viewBox="0 0 256 256" fill="none" xmlns="http://www.w3.org/2000/svg">
<path opacity="0.55" d="M74.75 214.54C60.5362 206.378 48.733 194.638 40.5266 180.5C32.3203 166.362 28 150.325 28 134L121.5 134L74.75 214.54Z" fill="#0771ED"/>
<path opacity="0.8" d="M223 135.5C223 151.913 218.68 168.036 210.473 182.25C202.267 196.464 190.464 208.267 176.25 216.473C162.036 224.68 145.913 229 129.5 229C113.087 229 96.9638 224.68 82.75 216.473L129.5 135.5H223Z" fill="#0771ED"/>
<path d="M29 126.5C29 101.702 39.1143 77.9202 57.1177 60.3855C75.1212 42.8509 99.5392 33 125 33C150.461 33 174.879 42.8509 192.882 60.3855C210.886 77.9201 221 101.702 221 126.5L125 126.5L29 126.5Z" fill="#0771ED"/>
</svg>
