<svg width="256" height="256" viewBox="0 0 256 256" fill="none" xmlns="http://www.w3.org/2000/svg">
<path opacity="0.5" d="M89.069 77.0173L49.2157 91.8125C46.0804 92.9765 44 95.968 44 99.3124V176C44 180.418 47.5817 184 52 184H203C207.418 184 211 180.418 211 176V74.1653C211 67.5427 203.413 63.788 198.148 67.8049L167.169 91.4386C165.253 92.9001 162.78 93.4203 160.438 92.8545L93.7318 76.7408C92.1846 76.3671 90.5612 76.4633 89.069 77.0173Z" fill="#0771ED"/>
<path opacity="0.5" d="M88.3813 116.847L53.564 109.907C48.6151 108.92 44 112.706 44 117.752V176C44 180.418 47.5817 184 52 184H203.563C207.956 184 211.527 180.458 211.563 176.065L211.951 128.142C211.98 124.586 209.657 121.437 206.25 120.415L166.46 108.48C165.405 108.163 164.295 108.068 163.201 108.201L90.9058 116.944C90.0645 117.046 89.2124 117.013 88.3813 116.847Z" fill="#0771ED"/>
<path opacity="0.7" d="M85.8848 138.463L49.3109 151.516C46.1261 152.653 44 155.669 44 159.051V176C44 180.418 47.5817 184 52 184H203C207.418 184 211 180.418 211 176V150.964C211 144.901 204.519 141.042 199.188 143.93L167.065 161.339C165.111 162.398 162.803 162.596 160.696 161.885L91.1311 138.417C89.4269 137.842 87.5787 137.858 85.8848 138.463Z" fill="#0771ED"/>
</svg>
